<svg width="116" height="38" viewBox="0 0 116 38" fill="none" xmlns="http://www.w3.org/2000/svg">
<g filter="url(#filter0_d)">
<path d="M27.7525 4.53402H29.3537C32.0014 7.86211 34.8107 10.7792 37.5774 13.7413L37.912 13.647C37.7705 10.9836 37.6492 8.32023 37.4628 5.66135C37.4404 5.34471 37.0407 5.05726 36.6724 4.56321L38.6755 4.46664C38.5071 8.20345 38.3409 11.8774 38.159 15.8814L29.192 6.28789C28.6126 7.66449 28.8709 14.7294 29.5693 15.5536H27.5796C27.6986 14.826 27.885 14.0669 27.9412 13.3079C28.0984 11.0622 28.2533 8.83224 28.3027 6.59106C28.3229 5.95328 27.9704 5.30653 27.7525 4.53402Z" fill="white"/>
<path d="M58.671 18.7312L60.3867 20.3256L59.5333 21.2756L58.7406 20.5165L58.8237 20.3885L59.6164 20.7478L59.8882 20.5008L58.7653 19.0591L57.766 20.4222L59.4929 21.9672L61.1794 20.2493L59.466 18.4527L59.5783 18.3382C59.6681 18.3786 59.8028 18.3944 59.8433 18.4662C60.9998 20.1842 62.6908 20.2628 64.5592 20.2425C74.1392 20.1752 83.7193 20.2111 93.3038 20.4671H89.9533C81.1592 20.4671 72.3629 20.4941 63.5688 20.4379C62.1967 20.4379 61.0806 20.6378 60.2452 21.7853C60.0344 22.0341 59.7972 22.2592 59.5378 22.4568C59.4166 22.4119 59.3133 22.4074 59.2841 22.358C58.0265 20.5075 56.1985 20.4222 54.1662 20.4447C46.0458 20.53 37.9232 20.4806 29.8028 20.4806H25.6618V20.2111H30.7168C38.8013 20.2111 46.8857 20.2111 54.9701 20.2111C56.3939 20.2111 57.8671 20.4357 58.671 18.7312Z" fill="white"/>
<path d="M81.9722 9.45429H84.4649C84.3796 10.3076 84.3257 11.1116 84.2156 11.9066C84.036 13.2091 83.8204 14.5071 83.6205 15.8073L83.2702 15.7714V13.6537C82.3899 14.1837 81.669 14.7047 80.8786 15.0797C78.6958 16.1172 76.5893 15.7938 74.8152 14.2623C73.0771 12.7712 72.5269 10.8084 73.36 8.58297C73.6362 7.85088 73.8788 7.08735 74.2852 6.42936C74.6064 5.91061 75.078 5.32 75.6147 5.12911C78.0692 4.25779 80.5394 3.96585 82.8817 5.46597V5.84549C82.4438 5.84549 81.9206 6.00268 81.5837 5.82078C79.5626 4.72938 76.9778 4.8529 75.6012 6.19132C74.2246 7.52975 73.7014 10.2964 74.5457 12.0301C75.4597 13.903 77.93 15.0662 80.1599 14.7047C81.8262 14.433 83.4768 13.2899 83.4094 11.6012C83.3421 10.4761 83.0726 9.81135 81.9722 9.45429Z" fill="white"/>
<path d="M4 15.4547C4.06885 15.3803 4.14398 15.3119 4.22457 15.2504C7.04289 13.7727 6.86772 14.1118 6.36469 10.8848C5.96047 8.2798 5.10712 5.75117 5.06894 3.0631C5.05772 2.2569 4.64002 1.45295 4.46036 0.577133C5.45744 1.92454 6.7285 2.72849 8.48238 2.82281L6.64317 3.97484H7.6627C7.63126 4.06467 7.62677 4.15899 7.58186 4.18818C6.74422 4.7249 6.86549 5.60296 6.89243 6.37323C6.99349 9.19829 7.16865 12.0211 7.3236 15.0213C9.26386 15.0865 11.5051 15.1493 13.7889 14.2331L12.437 16.3934C11.9362 16.1531 11.5792 15.8522 11.1974 15.8208C9.84999 15.7085 8.50258 15.6569 7.15517 15.6569C6.73523 15.6569 6.3153 15.8814 5.8976 16.0094C5.19246 16.2317 4.45587 16.5012 4 15.4547Z" fill="white"/>
<path d="M69.4952 15.5715H67.3595C67.3565 15.1062 67.3145 14.642 67.2338 14.1837C67.093 13.759 66.9078 13.3502 66.6813 12.9643C65.0914 9.77768 65.0891 9.7687 61.5365 9.98653C61.2243 10.0045 60.7797 10.2111 60.6382 10.4491C59.9645 11.7314 59.329 13.0474 58.7384 14.3746C58.5879 14.7114 58.6351 15.1381 58.5879 15.5625H56.4253C59.7287 12.3647 60.7213 7.92724 63.3016 4.50034C65.3766 8.17876 67.3977 11.7988 69.4952 15.5715ZM62.9198 6.39794L61.2535 9.15338H64.5749L62.9198 6.39794Z" fill="white"/>
<path d="M111.227 0C111.096 0.633281 110.872 1.23063 110.867 1.83023C110.836 6.19882 110.836 10.5674 110.867 14.936C110.867 15.5581 111.148 16.1779 111.285 16.746C109.902 16.6876 109.356 16.1352 109.356 14.5857V2.15585C109.358 0.673705 109.684 0.312149 111.227 0Z" fill="white"/>
<path d="M90.4114 10.4446L89.1224 10.6243C90.5035 10.1752 90.5237 9.12867 90.3777 7.99685C90.2497 7.00426 90.1105 6.01167 89.9578 4.88658C90.9257 4.88658 92.1069 4.85964 93.2859 4.88658C94.1707 4.91129 94.777 4.68223 95.0398 3.71883C95.1767 3.20906 95.581 2.76891 95.8415 2.33549C95.956 3.17313 96.0413 3.98158 96.1851 4.78104C96.3086 5.46821 95.9178 5.52436 95.4103 5.52211C94.1437 5.52211 92.8772 5.52211 91.5096 5.52211C91.5096 6.80664 91.4624 8.06422 91.55 9.31506C91.5657 9.56882 92.0687 9.95283 92.3786 9.98876C93.0299 10.0606 93.7013 9.93936 94.3638 9.89894C94.393 9.9955 94.42 10.0921 94.4469 10.1864L91.4512 10.9724C91.3748 12.2052 91.2828 13.7031 91.1795 15.3649C93.3016 15.5154 95.2576 15.0483 97.1956 14.3925L97.3438 14.6508L95.7898 16.3103C93.7822 15.4323 91.8262 16.1195 89.978 15.8612C90.8651 14.1051 90.252 12.2973 90.4114 10.4446Z" fill="white"/>
<path d="M50.2228 9.88098L47.0317 10.6984C46.9531 11.9695 46.861 13.4785 46.7487 15.311L53.0029 14.2892L51.3276 16.0858C50.8066 15.8971 50.4294 15.6524 50.0431 15.6366C48.5587 15.5895 47.0721 15.6164 45.7898 15.6164V10.2425L44.7051 10.3009C45.938 9.87648 46.1738 8.96698 45.9897 7.8172C45.8302 6.82012 45.7022 5.8163 45.554 4.76757C46.7352 4.36784 51.0582 4.543 51.6016 5.18077H47.0968C47.0968 6.54165 47.0137 7.87559 47.1686 9.18257C47.1978 9.44082 48.1208 9.69683 48.6553 9.7642C49.1359 9.82483 49.6479 9.62048 50.1464 9.53963L50.2228 9.88098Z" fill="white"/>
<path d="M105.334 16.8426C105.482 16.1846 105.752 15.5311 105.761 14.8731C105.803 11.28 105.81 7.68696 105.761 4.10735C105.761 3.35954 105.442 2.61398 105.294 1.96947C106.991 2.32653 107.27 2.64317 107.27 4.49585C107.27 7.7476 107.27 10.9993 107.27 14.2511C107.265 16.1689 107.104 16.371 105.334 16.8426Z" fill="white"/>
<path d="M20.0454 4.53627C19.9196 5.10443 19.695 5.65911 19.6838 6.23625C19.6284 8.89214 19.6112 11.5488 19.6321 14.2062C19.6321 14.5991 19.8859 14.9921 20.1037 15.6142L18.1612 15.4323C18.3297 14.9832 18.6104 14.5992 18.6104 14.2106C18.5655 11.3699 18.4734 8.52909 18.3723 5.6883C18.3223 5.29749 18.2374 4.91193 18.1186 4.53627H20.0454Z" fill="white"/>
<path d="M42.8367 27.8329C43.4768 26.6764 44.0741 25.5738 44.7074 24.4936C44.7545 24.415 45.051 24.4936 45.2576 24.4936V29.7193H44.5142V26.499L44.3256 26.4294C43.8473 27.3568 43.3667 28.2821 42.7986 29.3824L41.3142 26.4249L41.1345 26.4563V29.7103H40.3508V24.3207C41.9811 25.0258 41.797 26.8426 42.8367 27.8329Z" fill="white"/>
<path d="M29.347 27.3973L30.737 29.5441L30.4855 29.8001C29.1763 29.4498 29.2796 27.5881 28.2398 27.2782C28.6463 26.7213 29.0258 26.2003 29.4031 25.6793L27.6066 24.8215V29.7103H26.7465V24.7698C27.6717 24.1949 29.3178 24.2511 29.8522 24.9809C30.5057 25.9039 30.1329 26.6809 29.347 27.3973Z" fill="white"/>
<path d="M77.8895 27.4714C78.3387 28.1765 78.7878 28.8929 79.2549 29.607C77.683 29.4902 77.7818 27.642 76.4546 27.1996C76.9778 26.6203 78.3409 26.7505 77.802 25.6389C77.6178 25.2549 76.8049 25.1741 76.1042 24.8799V29.6856C75.4934 29.8383 75.206 29.854 75.2599 29.0546C75.3564 27.6623 75.2868 26.2587 75.2868 24.7519C76.0301 24.2623 77.6156 24.2735 78.2331 24.8821C78.8507 25.4907 78.7743 26.2744 77.8895 27.4714Z" fill="white"/>
<path d="M88.8417 24.7496C89.7736 24.2511 91.1772 24.3499 91.9138 25.0034C92.7043 25.7085 92.9715 27.4556 92.3966 28.5695C91.6353 30.0472 90.2609 29.7979 88.8417 29.7395V24.7496ZM89.5873 26.9953C89.5873 27.3681 89.5873 27.7386 89.5873 28.1181C89.6142 29.1242 90.1801 29.5239 90.9841 28.931C91.5199 28.5091 91.867 27.8923 91.9497 27.2154C91.9811 26.6135 91.5724 25.9084 91.1682 25.3941C90.9661 25.1381 90.3081 25.0707 89.9353 25.183C89.7332 25.2437 89.6681 25.8567 89.594 26.2228C89.5675 26.4787 89.5653 26.7366 89.5873 26.993V26.9953Z" fill="white"/>
<path d="M71.8644 29.3622C71.1076 30.3526 69.951 29.4251 68.8035 30C68.8035 28.1338 68.7878 26.5506 68.826 24.9674C68.826 24.799 69.1516 24.5183 69.3402 24.4981C70.1285 24.4442 70.9122 24.4756 71.7139 24.4756C71.7274 24.6194 71.7386 24.7653 71.7521 24.9091L69.7579 25.1898V26.6158L71.5545 26.8403L71.6286 27.1323C70.9369 27.5971 69.0505 26.892 69.7557 28.6301C69.9443 29.0636 71.0963 29.1107 71.8644 29.3622Z" fill="white"/>
<path d="M37.0496 26.8403C36.1267 27.6286 34.1302 26.8605 34.8578 28.6571C35.0263 29.077 36.1536 29.1062 36.843 29.3308C36.6903 29.8652 36.1693 29.9618 33.9955 29.6833V24.5857L36.8161 24.4172L36.9014 24.8843C36.5049 24.9745 36.1028 25.0383 35.6977 25.0752C35.1723 25.0954 34.7545 25.1067 34.7456 25.8298C34.7366 26.5529 35.0106 26.7685 35.6753 26.728C36.1352 26.7377 36.5942 26.7752 37.0496 26.8403Z" fill="white"/>
<path d="M82.4797 24.5969H85.307L85.3744 24.8731C85.0054 24.9655 84.6301 25.0308 84.2516 25.0685C83.6946 25.0865 83.2208 25.0528 83.2253 25.8635C83.2253 26.6023 83.5711 26.7617 84.1954 26.7191C84.5177 26.7211 84.8395 26.7444 85.1588 26.7887L85.2172 27.1166C84.8576 27.2248 84.487 27.2926 84.1123 27.3187C83.4072 27.2895 83.2298 27.5994 83.2141 28.2596C83.2141 28.9692 83.506 29.1893 84.1595 29.1399C84.5637 29.1107 84.9747 29.1399 85.3879 29.1399C85.1633 29.8877 84.7142 29.9708 82.4685 29.6789L82.4797 24.5969Z" fill="white"/>
<path d="M58.79 25.4121C58.5654 25.2998 58.4284 25.1875 58.3117 25.1875C57.7997 25.2324 57.2921 25.3133 56.7846 25.3806C57.0432 25.8073 57.3259 26.219 57.6312 26.6135C57.7884 26.7977 58.1769 26.8044 58.3049 26.9953C58.6418 27.523 59.1201 28.1181 59.0999 28.6616C59.0864 29.0591 58.4082 29.6856 57.9546 29.7575C57.3281 29.8563 56.6342 29.5329 55.9784 29.36C55.92 29.3443 55.9425 29.0276 55.9268 28.8278C56.4747 28.9715 56.9643 29.205 57.4448 29.1893C57.775 29.1781 58.2735 28.8794 58.3656 28.5987C58.4576 28.318 58.1702 27.8531 57.9164 27.6196C57.5661 27.3029 56.9867 27.2199 56.6858 26.8763C56.3489 26.4945 56.0121 25.9151 56.057 25.457C56.0929 25.0775 56.6386 24.5273 57.0339 24.4554C57.602 24.3499 58.2398 24.6014 58.8417 24.7384C58.8423 24.964 58.8251 25.1892 58.79 25.4121Z" fill="white"/>
<path d="M50.7415 25.9645L50.0678 27.7296L51.2288 28.071C50.8223 28.8951 49.0145 28.1518 49.5131 29.717H48.5093C49.2436 27.9721 49.9443 26.3103 50.755 24.3925L52.9849 29.6766L52.273 29.7575C51.779 28.5403 51.3141 27.3972 50.7415 25.9645Z" fill="white"/>
<path d="M62.1698 24.5385H65.5563C65.5286 24.6757 65.4849 24.8091 65.426 24.936C63.8675 24.8664 64.1617 25.9847 64.1572 26.9055C64.1572 27.7835 64.1572 28.6616 64.1572 29.6676L63.6497 29.8136C63.5886 29.7066 63.5446 29.5907 63.5194 29.47C63.5059 28.3854 63.47 27.3007 63.5194 26.2183C63.5464 25.4705 63.4296 24.9607 62.5134 25.0483C62.3876 25.0483 62.2416 24.8731 62.1046 24.7766L62.1698 24.5385Z" fill="white"/>
</g>
<defs>
<filter id="filter0_d" x="0" y="0" width="115.285" height="38" filterUnits="userSpaceOnUse" color-interpolation-filters="sRGB">
<feFlood flood-opacity="0" result="BackgroundImageFix"/>
<feColorMatrix in="SourceAlpha" type="matrix" values="0 0 0 0 0 0 0 0 0 0 0 0 0 0 0 0 0 0 127 0"/>
<feOffset dy="4"/>
<feGaussianBlur stdDeviation="2"/>
<feColorMatrix type="matrix" values="0 0 0 0 0 0 0 0 0 0 0 0 0 0 0 0 0 0 0.25 0"/>
<feBlend mode="normal" in2="BackgroundImageFix" result="effect1_dropShadow"/>
<feBlend mode="normal" in="SourceGraphic" in2="effect1_dropShadow" result="shape"/>
</filter>
</defs>
</svg>
