<svg width="22" height="21" viewBox="0 0 22 21" fill="none" xmlns="http://www.w3.org/2000/svg">
<path d="M17.4252 0.142856H4.56808C2.43862 0.142856 0.710938 1.87053 0.710938 4V16.8571C0.710938 18.9866 2.43862 20.7143 4.56808 20.7143H11.6931V12.7455H9.01451V9.63839H11.6931V7.34821C11.6931 4.69643 13.327 3.25 15.6975 3.25C16.8225 3.25 17.8002 3.33036 18.0815 3.37053V6.14286L16.4475 6.15625C15.1484 6.15625 14.9074 6.75893 14.9074 7.65625V9.63839H17.9743L17.5725 12.7455H14.9074V20.7143H17.4252C19.5547 20.7143 21.2824 18.9866 21.2824 16.8571V4C21.2824 1.87053 19.5547 0.142856 17.4252 0.142856Z" fill="#FFCF7A"/>
</svg>
