<svg width="25" height="25" viewBox="0 0 25 25" fill="none" xmlns="http://www.w3.org/2000/svg">
<path d="M16.7796 17.933C16.6323 18.5893 16.2439 18.75 15.6948 18.442L12.6948 16.2321L11.2483 17.625C11.0876 17.7857 10.9537 17.9196 10.6456 17.9196L10.8599 14.8661L16.418 9.84375C16.659 9.62946 16.3644 9.50893 16.043 9.72321L9.17243 14.0491L6.21261 13.125C5.56975 12.9241 5.55636 12.4821 6.34654 12.1741L17.918 7.71428C18.4537 7.51339 18.9224 7.83482 18.7483 8.65178L16.7796 17.933ZM24.8555 12.4286C24.8555 5.79911 19.4849 0.42857 12.8555 0.42857C6.226 0.42857 0.855469 5.79911 0.855469 12.4286C0.855469 19.058 6.226 24.4286 12.8555 24.4286C19.4849 24.4286 24.8555 19.058 24.8555 12.4286Z" fill="#FFCF7A"/>
</svg>
