<svg width="22" height="18" viewBox="0 0 22 18" fill="none" xmlns="http://www.w3.org/2000/svg">
<path d="M21.5519 2.89286C20.7751 3.22768 19.9314 3.46875 19.0608 3.5625C19.9581 3.02678 20.6412 2.18303 20.9626 1.17857C20.1323 1.67411 19.1948 2.03571 18.2171 2.22321C17.4269 1.37946 16.3019 0.857142 15.0564 0.857142C12.659 0.857142 10.7305 2.79911 10.7305 5.18303C10.7305 5.51786 10.7706 5.85268 10.8376 6.17411C7.24833 5.98661 4.04743 4.27232 1.91797 1.64732C1.54297 2.29018 1.32868 3.02678 1.32868 3.83036C1.32868 5.33036 2.09208 6.65625 3.25725 7.43303C2.54743 7.40625 1.87779 7.20536 1.3019 6.88393C1.3019 6.89732 1.3019 6.92411 1.3019 6.9375C1.3019 9.04018 2.7885 10.7812 4.77065 11.183C4.40904 11.2768 4.02065 11.3304 3.63225 11.3304C3.351 11.3304 3.08315 11.3036 2.81529 11.2634C3.3644 12.9777 4.95815 14.2232 6.85993 14.2634C5.37333 15.4286 3.51172 16.1116 1.4894 16.1116C1.12779 16.1116 0.792969 16.0982 0.444754 16.058C2.35993 17.2902 4.63672 18 7.08761 18C15.043 18 19.3956 11.4107 19.3956 5.69196C19.3956 5.50446 19.3956 5.31696 19.3823 5.12946C20.226 4.51339 20.9626 3.75 21.5519 2.89286Z" fill="#FFCF7A"/>
</svg>
