<svg width="26" height="16" viewBox="0 0 26 16" fill="none" xmlns="http://www.w3.org/2000/svg">
<path d="M25.8186 1.39286C25.8186 1.39286 25.6311 0.857142 24.466 1.00446L20.6088 1.03125C20.3142 0.991071 20.0999 1.11161 20.0999 1.11161C20.0999 1.11161 19.8722 1.23214 19.7651 1.52678C19.1356 3.14732 18.332 4.54018 18.332 4.54018C16.6177 7.45982 15.9213 7.62054 15.6401 7.43304C14.9838 7.01786 15.1579 5.74554 15.1579 4.83482C15.1579 1.99553 15.5865 0.816964 14.3142 0.508927C13.899 0.415177 13.591 0.348214 12.5061 0.334821C11.1267 0.321427 9.9615 0.334821 9.30525 0.65625C8.86328 0.870535 8.52846 1.35268 8.72935 1.37946C8.98382 1.41964 9.55971 1.54018 9.86775 1.95536C9.86775 1.95536 10.2026 2.50446 10.2561 3.70982C10.4035 7.04464 9.72042 7.45982 9.72042 7.45982C9.1981 7.74107 8.28739 7.27232 6.9481 4.51339C6.9481 4.51339 6.17132 3.14732 5.56864 1.64732C5.4615 1.36607 5.24721 1.21875 5.24721 1.21875C5.24721 1.21875 5.00614 1.03125 4.65792 0.977677L0.988281 1.00446C0.425781 1.00446 0.224888 1.25893 0.224888 1.25893C0.224888 1.25893 0.0239955 1.47321 0.211496 1.91518C3.07757 8.65179 6.34542 12.0268 6.34542 12.0268C6.34542 12.0268 9.33203 15.1473 12.7204 14.933H14.2606C14.7294 14.8929 14.9704 14.6384 14.9704 14.6384C14.9704 14.6384 15.1847 14.3973 15.1713 13.9554C15.1445 11.8929 16.1088 11.5848 16.1088 11.5848C17.0463 11.2902 18.2517 13.5804 19.5374 14.4643C19.5374 14.4643 20.5151 15.1339 21.2517 14.9866L24.6802 14.933C26.4883 14.9196 25.6311 13.4196 25.6311 13.4196C25.5642 13.2991 25.1356 12.375 23.0731 10.4598C20.9302 8.46429 21.2115 8.78571 23.8097 5.33036C25.3901 3.22768 26.0195 1.94196 25.8186 1.39286Z" fill="#FFCF7A"/>
</svg>
